<?xml version="1.0" encoding="utf-8"?>
<!-- Generator: Adobe Illustrator 14.0.0, SVG Export Plug-In . SVG Version: 6.00 Build 43363)  -->
<!DOCTYPE svg PUBLIC "-//W3C//DTD SVG 1.1//EN" "http://www.w3.org/Graphics/SVG/1.1/DTD/svg11.dtd">
<svg version="1.1" id="Layer_1" xmlns="http://www.w3.org/2000/svg" xmlns:xlink="http://www.w3.org/1999/xlink" x="0px" y="0px"
	 width="644.647px" height="209.741px" viewBox="0 0 644.647 209.741" enable-background="new 0 0 644.647 209.741"
	 xml:space="preserve">
<path opacity="0.2" d="M625.938,130.326v9.967h-32.797V83.372h32.797v9.891h-20.722v12.497h19.279v9.89h-19.279v14.678
	L625.938,130.326L625.938,130.326z M556.052,83.372h12.076v46.954h23.098v9.967h-35.174V83.372z M543.734,93.729
	c-2.155-0.752-4.271-1.128-6.347-1.128c-4.545,0-8.063,1.707-10.557,5.119c-2.492,3.414-3.739,8.171-3.739,14.269
	c0,12.692,4.765,19.039,14.296,19.039c3.998,0,8.84-1,14.527-2.998v10.122c-4.676,1.947-9.894,2.921-15.657,2.921
	c-8.285,0-14.621-2.512-19.009-7.533c-4.39-5.023-6.582-12.23-6.582-21.626c0-5.918,1.076-11.104,3.231-15.556
	c2.155-4.449,5.252-7.864,9.29-10.237c4.036-2.375,8.771-3.563,14.198-3.563c5.53,0,11.086,1.337,16.67,4.01l-3.896,9.813
	C548.033,95.363,545.893,94.481,543.734,93.729z M495.118,140.293h-11.997v-21.764l-15.188-28.266l-2.427,6.113
	c-2.129-1.014-4.271-1.896-6.426-2.648c-2.156-0.752-4.272-1.128-6.351-1.128c-4.544,0-8.063,1.707-10.556,5.119
	c-2.493,3.414-3.739,8.171-3.739,14.269c0,12.692,4.765,19.039,14.295,19.039c3.999,0,8.841-1,14.528-2.998v10.122
	c-4.674,1.947-9.894,2.921-15.658,2.921c-8.283,0-14.619-2.512-19.008-7.533c-4.39-5.023-6.582-12.23-6.582-21.626
	c0-5.918,1.077-11.104,3.231-15.556c2.154-4.449,5.253-7.864,9.29-10.237c4.036-2.375,8.771-3.563,14.197-3.563
	c4.06,0,8.134,0.724,12.223,2.164l-0.725-1.347h13.089l11.802,23.438l11.881-23.439h13.01l-18.891,34.769V140.293L495.118,140.293z
	 M478.867,74.287h-12.588l-13.594-21.841h-6.428v21.841h-11.266h-0.81h-12.201l-4.128-13.55h-20.76l-4.129,13.55h-13.01
	l20.098-57.153h14.764l19.366,54.861V17.366h16.593c7.738,0,13.464,1.407,17.177,4.224c3.714,2.818,5.571,7.092,5.571,12.829
	c0,3.347-0.924,6.326-2.767,8.935c-1.845,2.608-4.454,4.652-7.83,6.132c7.766,11.597,13.078,19.472,15.938,23.628V17.366h32.797
	v9.889H490.94v12.498h19.28v9.89h-19.28v14.677h20.722v9.968h-31.985H478.867z M408.526,29.787c-0.479-1.61-0.823-2.883-1.031-3.816
	c-0.856,3.323-3.313,11.536-7.361,24.646h14.84C411.155,38.339,409.008,31.396,408.526,29.787z M458.547,28.968
	c-1.857-1.142-4.732-1.712-8.627-1.712h-3.661v15.379h3.896c3.817,0,6.635-0.636,8.453-1.907c1.815-1.271,2.726-3.271,2.726-5.997
	C461.333,32.031,460.403,30.11,458.547,28.968z M362.266,54.042h-5.182v20.245H345.01v-56.92h18.191
	c6.905,0,12.157,1.485,15.755,4.458c3.598,2.972,5.394,7.403,5.394,13.296c0,6.126-1.914,10.811-5.744,14.055
	C374.774,52.42,369.328,54.042,362.266,54.042z M369.841,29.279c-1.544-1.349-3.966-2.023-7.263-2.023h-5.494v16.896h3.975
	c3.712,0,6.49-0.732,8.336-2.198c1.843-1.469,2.765-3.604,2.765-6.406C372.158,32.72,371.386,30.63,369.841,29.279z M327.396,47.346
	c0-1.272,0.021-2.739,0.061-4.399c0.038-1.661,0.212-6.074,0.524-13.236h-0.351l-14.685,44.578h-11.063L288.174,29.63h-0.353
	c0.493,9.086,0.74,15.145,0.74,18.181v26.476h-10.789V17.365h16.438l13.476,43.528h0.234l14.294-43.528h16.438v56.921h-11.258
	L327.396,47.346L327.396,47.346z M236.868,97.231h-0.352c0.493,7.606,0.74,13.031,0.74,16.274v26.786h-9.979h-0.811h-12.2
	l-4.129-13.549h-20.76l-4.128,13.549h-13.01l20.098-57.153h14.764l19.366,54.858V83.372h15.23l24.732,42.633h0.272
	c-0.391-7.398-0.584-12.627-0.584-15.689V83.372h10.866v56.921H261.64L236.868,97.231z M200.81,95.793
	c-0.479-1.61-0.824-2.881-1.031-3.815c-0.857,3.322-3.312,11.537-7.361,24.646h14.839C203.438,104.345,201.291,97.401,200.81,95.793
	z M246.838,75.064c-8.726,0-15.424-2.53-20.099-7.592c-4.675-5.061-7.012-12.33-7.012-21.803c0-9.474,2.345-16.708,7.031-21.705
	s11.406-7.495,20.157-7.495s15.442,2.518,20.08,7.553c4.633,5.035,6.95,12.277,6.95,21.727c0,9.422-2.336,16.664-7.011,21.725
	C262.263,72.535,255.563,75.064,246.838,75.064z M246.917,26.515c-4.806,0-8.427,1.615-10.867,4.847
	c-2.441,3.232-3.661,8.027-3.661,14.388c0,6.359,1.206,11.147,3.621,14.365c2.414,3.22,6.025,4.829,10.828,4.829
	c9.633,0,14.452-6.398,14.452-19.193C261.291,32.927,256.498,26.515,246.917,26.515z M209.944,27.722
	c-2.155-0.751-4.271-1.128-6.35-1.128c-4.544,0-8.063,1.707-10.556,5.12c-2.494,3.413-3.739,8.17-3.739,14.27
	c0,12.692,4.765,19.039,14.295,19.039c3.999,0,8.843-1,14.528-2.999v10.122c-4.673,1.947-9.894,2.92-15.658,2.92
	c-8.284,0-14.619-2.512-19.007-7.532c-4.39-5.023-6.583-12.231-6.583-21.629c0-5.918,1.077-11.102,3.231-15.554
	c2.155-4.45,5.252-7.865,9.29-10.239c4.038-2.375,8.771-3.562,14.198-3.562c5.53,0,11.088,1.336,16.671,4.01l-3.896,9.812
	C214.242,29.357,212.1,28.476,209.944,27.722z M140.008,157.813c1.004,1.74,0.409,3.965-1.333,4.97l-12.919,7.454
	c-1.739,1.006-3.966,0.409-4.97-1.329l-10.497-18.175c-9.521,4.199-20.046,6.535-31.121,6.535C36.55,157.27,2,122.733,2,80.135
	C2,37.534,36.55,3,79.169,3s77.168,34.534,77.168,77.135c0,23.562-10.575,44.65-27.235,58.798L140.008,157.813z M102.101,39.607
	C91.374,21.027,67.616,14.663,49.038,25.39c-18.58,10.728-24.945,34.484-14.219,53.064C45.138,96.327,67.514,102.89,85.74,93.813
	l2.17,3.759l-1.573,0.908c-0.481,0.277-0.674,0.836-0.53,1.349c-0.005,0.211,0.026,0.424,0.139,0.618l37.594,65.116
	c0.329,0.569,1.058,0.765,1.627,0.437l10.188-5.884c0.571-0.329,0.766-1.059,0.437-1.627l-29.428-50.975l0.109-0.062l-8.324-14.417
	c-0.329-0.569-1.058-0.766-1.627-0.437l-1.673,0.967l-2.331-4.039C107.449,77.776,111.878,56.544,102.101,39.607z M68.44,91.131
	c-17.687,0-32.021-14.337-32.021-32.024c0-17.684,14.335-32.021,32.021-32.021c17.686,0,32.021,14.337,32.021,32.021
	C100.462,76.794,86.125,91.131,68.44,91.131z M85.833,62.904L71.337,71.27l-0.063-0.108c0.645-1.893,0.73-3.75,0.436-5.39
	c-0.341-1.468-0.932-2.863-1.737-4.134l6.733-3.885l-3.261-5.646l-7.438,4.293c-1.109-1.169-2.048-2.292-2.862-3.702
	c-1.537-2.659-1.753-5.792,2.104-8.016c2.009-1.16,3.749-1.658,5.178-1.687l-2.302-6.993c-1.57,0.037-4.172,0.671-7.104,2.363
	c-7.33,4.23-9.668,11.586-5.751,18.368c0.878,1.521,1.919,2.946,2.975,4.146l-4.344,2.506l3.261,5.643l5.319-3.07
	c0.517,0.643,0.924,1.348,1.363,2.108c2.131,3.689,0.77,8.601-1.419,11.456l2.54,4.395l24.758-14.288L85.833,62.904z M322.879,90.73
	c5.14,4.905,7.713,11.757,7.713,20.559c0,9.369-2.67,16.546-8.006,21.528s-13.042,7.476-23.117,7.476h-16.125V83.372h17.877
	C310.517,83.372,317.736,85.825,322.879,90.73z M295.418,130.326h5.18c11.633,0,17.451-6.241,17.451-18.727
	c0-12.226-5.402-18.338-16.203-18.338h-6.428V130.326L295.418,130.326z M380.932,87.597c3.712,2.817,5.568,7.093,5.568,12.828
	c0,3.348-0.92,6.327-2.767,8.936c-1.844,2.609-4.451,4.654-7.828,6.134c7.766,11.596,13.077,19.471,15.938,23.628v-55.75h32.796
	v9.891h-20.72v12.497h19.279v9.89H403.92v14.678h20.721v9.967h-31.985h-0.811h-12.589l-13.594-21.84h-6.427v21.84H347.16V83.372
	h16.594C371.491,83.372,377.218,84.779,380.932,87.597z M359.235,93.263v15.378h3.894c3.817,0,6.635-0.636,8.453-1.907
	c1.817-1.271,2.727-3.271,2.727-5.997c0-2.698-0.929-4.619-2.783-5.763c-1.856-1.142-4.732-1.711-8.629-1.711H359.235z"/>
<path fill="#FFFFFF" d="M623.938,127.326v9.967h-32.797V80.372h32.797v9.891h-20.722v12.497h19.279v9.89h-19.279v14.678
	L623.938,127.326L623.938,127.326z M554.052,80.372h12.076v46.954h23.098v9.967h-35.174V80.372z M541.734,90.729
	c-2.155-0.752-4.271-1.128-6.347-1.128c-4.545,0-8.063,1.707-10.557,5.119c-2.492,3.414-3.739,8.171-3.739,14.269
	c0,12.692,4.765,19.039,14.296,19.039c3.998,0,8.84-1,14.527-2.998v10.122c-4.676,1.947-9.894,2.921-15.657,2.921
	c-8.285,0-14.621-2.512-19.009-7.533c-4.39-5.023-6.582-12.23-6.582-21.626c0-5.918,1.076-11.104,3.231-15.556
	c2.155-4.449,5.252-7.864,9.29-10.237c4.036-2.375,8.771-3.563,14.198-3.563c5.53,0,11.086,1.337,16.67,4.01l-3.896,9.813
	C546.033,92.363,543.893,91.481,541.734,90.729z M493.118,137.293h-11.997v-21.764l-15.188-28.266l-2.427,6.113
	c-2.129-1.014-4.271-1.896-6.426-2.648c-2.156-0.752-4.272-1.128-6.351-1.128c-4.544,0-8.063,1.707-10.556,5.119
	c-2.493,3.414-3.739,8.171-3.739,14.269c0,12.692,4.765,19.039,14.295,19.039c3.999,0,8.841-1,14.528-2.998v10.122
	c-4.674,1.947-9.894,2.921-15.658,2.921c-8.283,0-14.619-2.512-19.008-7.533c-4.39-5.023-6.582-12.23-6.582-21.626
	c0-5.918,1.077-11.104,3.231-15.556c2.154-4.449,5.253-7.864,9.29-10.237c4.036-2.375,8.771-3.563,14.197-3.563
	c4.06,0,8.134,0.724,12.223,2.164l-0.725-1.347h13.089l11.802,23.438l11.881-23.439h13.01l-18.891,34.769V137.293L493.118,137.293z
	 M476.867,71.287h-12.588l-13.594-21.841h-6.428v21.841h-11.266h-0.81h-12.201l-4.128-13.55h-20.76l-4.129,13.55h-13.01
	l20.098-57.153h14.764l19.366,54.861V14.366h16.593c7.738,0,13.464,1.407,17.177,4.224c3.714,2.818,5.571,7.092,5.571,12.829
	c0,3.347-0.924,6.326-2.767,8.935c-1.845,2.608-4.454,4.652-7.83,6.132c7.766,11.597,13.078,19.472,15.938,23.628V14.366h32.797
	v9.889H488.94v12.498h19.28v9.89h-19.28v14.677h20.722v9.968h-31.985H476.867z M406.526,26.787c-0.479-1.61-0.823-2.883-1.031-3.816
	c-0.856,3.323-3.313,11.536-7.361,24.646h14.84C409.155,35.339,407.008,28.396,406.526,26.787z M456.547,25.968
	c-1.857-1.142-4.732-1.712-8.627-1.712h-3.661v15.379h3.896c3.817,0,6.635-0.636,8.453-1.907c1.815-1.271,2.726-3.271,2.726-5.997
	C459.333,29.031,458.403,27.11,456.547,25.968z M360.266,51.042h-5.182v20.245H343.01v-56.92h18.191
	c6.905,0,12.157,1.485,15.755,4.458c3.598,2.972,5.394,7.403,5.394,13.296c0,6.126-1.914,10.811-5.744,14.055
	C372.774,49.42,367.328,51.042,360.266,51.042z M367.841,26.279c-1.544-1.349-3.966-2.023-7.263-2.023h-5.494v16.896h3.975
	c3.712,0,6.49-0.732,8.336-2.198c1.843-1.469,2.765-3.604,2.765-6.406C370.158,29.72,369.386,27.63,367.841,26.279z M325.396,44.346
	c0-1.272,0.021-2.739,0.061-4.399c0.038-1.661,0.212-6.074,0.524-13.236h-0.351l-14.685,44.578h-11.063L286.174,26.63h-0.353
	c0.493,9.086,0.74,15.145,0.74,18.181v26.476h-10.789V14.365h16.438l13.476,43.528h0.234l14.294-43.528h16.438v56.921h-11.258
	L325.396,44.346L325.396,44.346z M234.868,94.231h-0.352c0.493,7.606,0.74,13.031,0.74,16.274v26.786h-9.979h-0.811h-12.2
	l-4.129-13.549h-20.76l-4.128,13.549h-13.01l20.098-57.153h14.764l19.366,54.858V80.372h15.23l24.732,42.633h0.272
	c-0.391-7.398-0.584-12.627-0.584-15.689V80.372h10.866v56.921H259.64L234.868,94.231z M198.81,92.793
	c-0.479-1.61-0.824-2.881-1.031-3.815c-0.857,3.322-3.312,11.537-7.361,24.646h14.839C201.438,101.345,199.291,94.401,198.81,92.793
	z M244.838,72.064c-8.726,0-15.424-2.53-20.099-7.592c-4.675-5.061-7.012-12.33-7.012-21.803c0-9.474,2.345-16.708,7.031-21.705
	s11.406-7.495,20.157-7.495s15.442,2.518,20.08,7.553c4.633,5.035,6.95,12.277,6.95,21.727c0,9.422-2.336,16.664-7.011,21.725
	C260.263,69.535,253.563,72.064,244.838,72.064z M244.917,23.515c-4.806,0-8.427,1.615-10.867,4.847
	c-2.441,3.232-3.661,8.027-3.661,14.388c0,6.359,1.206,11.147,3.621,14.365c2.414,3.22,6.025,4.829,10.828,4.829
	c9.633,0,14.452-6.398,14.452-19.193C259.291,29.927,254.498,23.515,244.917,23.515z M207.944,24.722
	c-2.155-0.751-4.271-1.128-6.35-1.128c-4.544,0-8.063,1.707-10.556,5.12c-2.494,3.413-3.739,8.17-3.739,14.27
	c0,12.692,4.765,19.039,14.295,19.039c3.999,0,8.843-1,14.528-2.999v10.122c-4.673,1.947-9.894,2.92-15.658,2.92
	c-8.284,0-14.619-2.512-19.007-7.532c-4.39-5.023-6.583-12.231-6.583-21.629c0-5.918,1.077-11.102,3.231-15.554
	c2.155-4.45,5.252-7.865,9.29-10.239c4.038-2.375,8.771-3.562,14.198-3.562c5.53,0,11.088,1.336,16.671,4.01l-3.896,9.812
	C212.242,26.357,210.1,25.476,207.944,24.722z M138.008,154.813c1.004,1.74,0.409,3.965-1.333,4.97l-12.919,7.454
	c-1.739,1.006-3.966,0.409-4.97-1.329l-10.497-18.175c-9.521,4.199-20.046,6.535-31.121,6.535C34.55,154.27,0,119.733,0,77.135
	C0,34.534,34.55,0,77.169,0s77.168,34.534,77.168,77.135c0,23.562-10.575,44.65-27.235,58.798L138.008,154.813z M100.101,36.607
	C89.374,18.027,65.616,11.663,47.038,22.39c-18.58,10.728-24.945,34.484-14.219,53.064C43.138,93.327,65.514,99.89,83.74,90.813
	l2.17,3.759l-1.573,0.908c-0.481,0.277-0.674,0.836-0.53,1.349c-0.005,0.211,0.026,0.424,0.139,0.618l37.594,65.116
	c0.329,0.569,1.058,0.765,1.627,0.437l10.188-5.884c0.571-0.329,0.766-1.059,0.437-1.627l-29.428-50.975l0.109-0.062l-8.324-14.417
	c-0.329-0.569-1.058-0.766-1.627-0.437l-1.673,0.967l-2.331-4.039C105.449,74.776,109.878,53.544,100.101,36.607z M66.44,88.131
	c-17.687,0-32.021-14.337-32.021-32.024c0-17.684,14.335-32.021,32.021-32.021c17.686,0,32.021,14.337,32.021,32.021
	C98.462,73.794,84.125,88.131,66.44,88.131z M83.833,59.904L69.337,68.27l-0.063-0.108c0.645-1.893,0.73-3.75,0.436-5.39
	c-0.341-1.468-0.932-2.863-1.737-4.134l6.733-3.885l-3.261-5.646l-7.438,4.293c-1.109-1.169-2.048-2.292-2.862-3.702
	c-1.537-2.659-1.753-5.792,2.104-8.016c2.009-1.16,3.749-1.658,5.178-1.687l-2.302-6.993c-1.57,0.037-4.172,0.671-7.104,2.363
	c-7.33,4.23-9.668,11.586-5.751,18.368c0.878,1.521,1.919,2.946,2.975,4.146l-4.344,2.506l3.261,5.643l5.319-3.07
	c0.517,0.643,0.924,1.348,1.363,2.108c2.131,3.689,0.77,8.601-1.419,11.456l2.54,4.395l24.758-14.288L83.833,59.904z M320.879,87.73
	c5.14,4.905,7.713,11.757,7.713,20.559c0,9.369-2.67,16.546-8.006,21.528s-13.042,7.476-23.117,7.476h-16.125V80.372h17.877
	C308.517,80.372,315.736,82.825,320.879,87.73z M293.418,127.326h5.18c11.633,0,17.451-6.241,17.451-18.727
	c0-12.226-5.402-18.338-16.203-18.338h-6.428V127.326L293.418,127.326z M378.932,84.597c3.712,2.817,5.568,7.093,5.568,12.828
	c0,3.348-0.92,6.327-2.767,8.936c-1.844,2.609-4.451,4.654-7.828,6.134c7.766,11.596,13.077,19.471,15.938,23.628v-55.75h32.796
	v9.891h-20.72v12.497h19.279v9.89H401.92v14.678h20.721v9.967h-31.985h-0.811h-12.589l-13.594-21.84h-6.427v21.84H345.16V80.372
	h16.594C369.491,80.372,375.218,81.779,378.932,84.597z M357.235,90.263v15.378h3.894c3.817,0,6.635-0.636,8.453-1.907
	c1.817-1.271,2.727-3.271,2.727-5.997c0-2.698-0.929-4.619-2.783-5.763c-1.856-1.142-4.732-1.711-8.629-1.711H357.235z"/>
<g>
	
		<rect x="432.829" y="147.538" transform="matrix(0.9985 -0.0553 0.0553 0.9985 -8.8138 29.9252)" fill="#333333" width="206.287" height="53.163"/>
	
		<rect x="437.048" y="150.911" transform="matrix(0.9985 -0.0553 0.0553 0.9985 -8.994 30.1639)" opacity="0.2" fill="#333333" width="206.287" height="53.163"/>
	<g>
		<path fill="#FFFFFF" d="M461.393,192.37l-6.088,0.338l-1.312-23.648l-7.798,0.434l-0.281-5.068l21.685-1.201l0.281,5.068
			l-7.798,0.432L461.393,192.37z"/>
		<path fill="#FFFFFF" d="M494.728,190.523l-6.069,0.337l-0.687-12.395l-11.375,0.631l0.688,12.394l-6.09,0.338l-1.59-28.717
			l6.088-0.337l0.624,11.254l11.373-0.63l-0.624-11.255l6.069-0.336L494.728,190.523z"/>
		<path fill="#FFFFFF" d="M516.1,189.339l-16.539,0.917l-1.592-28.716l16.539-0.916l0.275,4.987l-10.448,0.579l0.349,6.306
			l9.723-0.538l0.276,4.989l-9.722,0.538l0.41,7.404l10.449-0.579L516.1,189.339z"/>
		<path fill="#FFFFFF" d="M526.12,159.979l8.938-0.495c4.072-0.227,7.06,0.189,8.964,1.246c1.904,1.058,2.927,2.85,3.066,5.376
			c0.095,1.716-0.229,3.146-0.974,4.291c-0.744,1.145-1.779,1.864-3.103,2.161l0.012,0.195c1.842,0.307,3.197,0.994,4.064,2.062
			c0.867,1.068,1.353,2.525,1.454,4.372c0.146,2.618-0.688,4.715-2.498,6.286c-1.813,1.57-4.34,2.446-7.588,2.626l-10.743,0.596
			L526.12,159.979z M532.84,171.014l3.534-0.195c1.65-0.091,2.831-0.413,3.544-0.964c0.711-0.553,1.033-1.417,0.969-2.596
			c-0.061-1.1-0.507-1.867-1.339-2.3c-0.833-0.435-2.119-0.603-3.86-0.506l-3.202,0.177L532.84,171.014z M533.108,175.845
			l0.414,7.484l3.968-0.22c1.676-0.093,2.896-0.482,3.658-1.167c0.764-0.688,1.108-1.69,1.034-3.014
			c-0.131-2.382-1.9-3.479-5.304-3.292L533.108,175.845z"/>
		<path fill="#FFFFFF" d="M552.325,187.331l-1.592-28.715l6.089-0.338l1.313,23.687l11.648-0.646l0.278,5.028L552.325,187.331z"/>
		<path fill="#FFFFFF" d="M597.902,170.363c0.264,4.754-0.713,8.472-2.927,11.157c-2.216,2.682-5.524,4.147-9.923,4.391
			c-4.4,0.244-7.85-0.847-10.348-3.268c-2.499-2.424-3.88-6.023-4.146-10.804c-0.265-4.78,0.716-8.496,2.939-11.146
			c2.223-2.651,5.541-4.101,9.954-4.345c4.412-0.245,7.858,0.839,10.336,3.249C596.268,162.01,597.639,165.599,597.902,170.363z
			 M576.945,171.524c0.179,3.209,0.92,5.59,2.229,7.146c1.308,1.558,3.173,2.267,5.596,2.133c4.856-0.269,7.107-3.631,6.75-10.086
			c-0.358-6.468-2.953-9.57-7.786-9.302c-2.422,0.134-4.203,1.05-5.344,2.75C577.249,165.863,576.768,168.317,576.945,171.524z"/>
		<path fill="#FFFFFF" d="M612.246,167.836l11.391-0.632l0.826,14.888c-1.813,0.705-3.527,1.225-5.144,1.557
			c-1.617,0.33-3.277,0.546-4.979,0.641c-4.335,0.239-7.716-0.852-10.14-3.271c-2.428-2.42-3.772-6.013-4.036-10.779
			c-0.258-4.636,0.868-8.323,3.377-11.062c2.507-2.741,6.111-4.24,10.813-4.5c2.946-0.165,5.82,0.267,8.622,1.293l-1.753,4.984
			c-2.152-0.932-4.362-1.334-6.628-1.208c-2.631,0.146-4.69,1.146-6.177,3.002c-1.487,1.854-2.147,4.275-1.982,7.261
			c0.173,3.116,0.944,5.462,2.311,7.034c1.368,1.572,3.27,2.291,5.705,2.156c1.27-0.071,2.553-0.274,3.848-0.608l-0.332-5.99
			l-5.44,0.302L612.246,167.836z"/>
	</g>
</g>
</svg>
